<svg xmlns="http://www.w3.org/2000/svg" width="1036" height="1035" viewBox="0 0 1036 1035" version="1.1"><path d="M 515.034 425.750 C 515.067 495.500, 515.067 495.500, 576.284 532.157 C 609.953 552.318, 637.670 568.649, 637.877 568.447 C 638.291 568.043, 516.047 356, 515.401 356 C 515.180 356, 515.015 387.387, 515.034 425.750" stroke="none" fill="#9bcb4c" fill-rule="evenodd"/><path d="M 492.555 1.614 C 488.185 2.403, 480.017 4.585, 474.404 6.463 C 423.586 23.468, 382.349 68.040, 350.565 140.315 C 345.599 151.606, 336.069 175.827, 333.510 183.662 C 333.240 184.489, 330.447 184.131, 323.815 182.421 C 262.452 166.596, 207.380 162.507, 163.745 170.533 C 101.241 182.031, 59.930 216.128, 49.894 264.500 C 47.558 275.757, 47.386 297.342, 49.518 311.500 C 53.883 340.482, 67.450 374.973, 87.476 408 C 105.026 436.945, 134.523 475.964, 160.148 504.131 C 164.466 508.879, 168 513.041, 168 513.380 C 168 513.720, 162.758 519.960, 156.351 527.249 C 96.712 595.094, 63.009 652.878, 50.925 708 C 48 721.342, 47.223 746.316, 49.354 758.500 C 58.263 809.435, 95.217 839.131, 161.500 848.619 C 176.138 850.714, 211.963 850.987, 229 849.133 C 253.487 846.469, 282.305 841.183, 309.373 834.393 C 317.003 832.479, 323.349 831.045, 323.476 831.206 C 323.603 831.368, 325.861 838.025, 328.495 846 C 364.873 956.170, 417.412 1021.947, 478.250 1033.488 C 488.465 1035.426, 509.233 1035.437, 520.280 1033.510 C 537.868 1030.443, 560.242 1021.438, 576.500 1010.882 C 599.499 995.950, 621.947 971.917, 640.163 942.724 C 654.567 919.641, 674.586 875.763, 684.065 846.500 C 685.847 841, 687.644 836.115, 688.059 835.644 C 688.473 835.173, 695.529 836.401, 703.739 838.372 C 765.198 853.130, 823.247 854.898, 869.212 843.411 C 883.110 839.938, 891.893 836.616, 905.057 829.853 C 937.804 813.028, 958.727 788.053, 966.729 756.237 C 969.470 745.340, 969.157 713.956, 966.159 699.029 C 956.089 648.896, 922.314 590.079, 866.500 525.482 C 860.450 518.480, 853.823 510.834, 851.772 508.492 C 848.045 504.234, 848.045 504.234, 856.772 494.342 C 912.146 431.581, 949.879 370.660, 964.516 320.391 C 969.399 303.618, 971.289 289.157, 970.710 273 C 970.103 256.090, 968.013 246.753, 962.031 234.241 C 956.914 223.536, 953.221 218.256, 944.368 208.990 C 923.176 186.809, 890.528 172.381, 851.789 168.079 C 837.978 166.545, 803.934 166.763, 787.659 168.490 C 762.422 171.168, 733.727 176.520, 704.087 184.077 C 695.609 186.238, 688.598 187.893, 688.507 187.753 C 688.415 187.614, 686.195 181.200, 683.572 173.500 C 675.780 150.621, 668.379 132.646, 658.454 112.500 C 642.914 80.956, 629.336 61.230, 609.551 41.454 C 602.923 34.828, 594.350 27.062, 590.500 24.195 C 576.295 13.618, 555.199 4.465, 538.119 1.470 C 527.522 -0.389, 503.222 -0.312, 492.555 1.614 M 512.069 31.027 C 488.054 36.068, 465.426 51.176, 449.012 73.129 C 435.703 90.928, 409.087 138.541, 398.178 164.064 C 392.849 176.532, 384.466 199.830, 385.107 200.392 C 385.323 200.581, 392.025 203.091, 400 205.971 C 431.352 217.291, 460.280 229.626, 493.242 245.731 C 514.984 256.354, 514.984 256.354, 533.742 247.240 C 570.581 229.340, 606.180 214.696, 643 202.296 C 655.375 198.128, 665.607 194.637, 665.739 194.537 C 665.870 194.437, 663.738 188.167, 661.002 180.604 C 641.851 127.678, 619.250 88.207, 593.044 61.925 C 577.943 46.779, 563.985 37.428, 549.500 32.754 C 542.603 30.528, 519.519 29.464, 512.069 31.027 M 200.906 187.997 C 181.819 190.211, 160.990 197.836, 145.703 208.206 C 115.922 228.408, 103.603 273.299, 115.161 319.500 C 125.338 360.179, 158.821 415.416, 205.638 468.761 C 208.500 472.022, 208.500 472.022, 221.500 459.873 C 238.052 444.404, 259.029 425.999, 275 412.931 C 287.500 402.703, 287.500 402.703, 288.217 397.102 C 288.611 394.021, 290.108 381.600, 291.544 369.500 C 297.686 317.735, 307.795 267.750, 321.442 221.670 C 324.509 211.313, 326.785 202.462, 326.500 202 C 325.128 199.780, 287.612 192.437, 262.500 189.473 C 246.840 187.624, 211.433 186.776, 200.906 187.997 M 789.804 189.010 C 766.231 190.750, 729.351 197.205, 705 203.853 C 696.009 206.308, 694.550 206.992, 694.846 208.610 C 695.037 209.649, 697.149 217.582, 699.541 226.239 C 707.471 254.940, 716.036 296.507, 721.026 330.500 C 723.659 348.441, 727.980 385.417, 727.991 390.109 C 728 393.522, 728.696 394.284, 740.750 404.078 C 763.979 422.952, 798.617 453.704, 810.958 466.410 C 813.410 468.934, 815.743 471, 816.142 471 C 818.033 471, 844.602 436.020, 858.677 415 C 876.801 387.932, 895.606 353.167, 904.757 329.811 C 939.900 240.117, 909.457 191.409, 816.500 188.600 C 808.250 188.351, 796.237 188.536, 789.804 189.010 M 648.500 220.990 C 622.234 229.784, 603.625 236.493, 580 245.687 C 561.267 252.977, 534.872 263.967, 533.754 264.941 C 533.344 265.299, 540.307 269.621, 549.227 274.546 C 595.757 300.233, 644.131 331.217, 689.902 364.652 C 698.413 370.869, 705.527 375.806, 705.710 375.623 C 706.738 374.595, 697.835 319.059, 692.413 292.680 C 687.140 267.025, 674.574 218.459, 672.157 214.395 C 671.716 213.652, 663.952 215.816, 648.500 220.990 M 376.195 230.750 C 371.523 248.350, 366.618 270.097, 362.153 293 C 357.946 314.582, 351.671 353.004, 352.257 353.591 C 352.447 353.780, 360.043 348.802, 369.139 342.527 C 396.982 323.318, 454.432 288.276, 485.743 271.403 C 489.727 269.256, 492.990 267.236, 492.993 266.914 C 493.002 266.144, 456.923 249.546, 436 240.696 C 420.463 234.124, 381.407 219, 379.972 219 C 379.609 219, 377.910 224.287, 376.195 230.750 M 484.914 287.902 C 435.373 312.786, 401.744 333.617, 362.382 363.804 C 349.264 373.864, 349.264 373.864, 348.130 383.182 C 346.712 394.835, 344.333 420.133, 342.927 438.500 C 340.346 472.228, 340.829 581.936, 343.627 597.500 C 344.069 599.953, 347.023 602.706, 359.833 612.599 C 405.787 648.090, 459.935 683.772, 505.062 708.303 C 513.624 712.957, 513.624 712.957, 525.562 706.340 C 580.608 675.831, 638.817 636.291, 688 595.998 C 716.216 572.882, 713.265 578.246, 714.186 548.414 C 714.899 525.310, 713.910 466.224, 712.505 448 C 712.230 444.425, 711.534 434.750, 710.959 426.500 C 710.384 418.250, 709.675 410.275, 709.383 408.778 C 708.991 406.761, 705.018 402.925, 694.071 393.992 C 643.962 353.100, 601.202 324.375, 543 292.506 C 506.661 272.608, 514.178 273.203, 484.914 287.902 M 447.744 382.648 C 380.988 421.223, 380.988 421.223, 381.244 498.239 C 381.500 575.254, 381.500 575.254, 447.995 613.640 C 486.677 635.970, 515.104 651.790, 515.958 651.463 C 516.766 651.153, 546.806 633.940, 582.713 613.213 C 648 575.527, 648 575.527, 647.975 498.014 C 647.950 420.500, 647.950 420.500, 581.990 382.505 C 545.712 361.608, 515.686 344.412, 515.265 344.292 C 514.844 344.171, 484.460 361.432, 447.744 382.648 M 515.032 425.682 C 515.064 495.500, 515.064 495.500, 572.688 530 C 604.382 548.975, 632.042 565.538, 634.156 566.807 C 638 569.113, 638 569.113, 638 498.221 C 638 427.329, 638 427.329, 579.250 393.497 C 546.938 374.889, 519.263 358.809, 517.750 357.764 C 515 355.864, 515 355.864, 515.032 425.682 M 451.750 392.739 C 392 427.320, 392 427.320, 392.030 496.910 C 392.053 549.473, 392.339 566.011, 393.200 564.500 C 397.408 557.109, 509.586 363.846, 511.174 361.250 C 512.268 359.462, 512.789 358.035, 512.332 358.079 C 511.874 358.122, 484.613 373.719, 451.750 392.739 M 731.338 434 C 732.968 455.260, 734.184 507.794, 733.592 531.390 C 732.942 557.280, 732.942 557.280, 745.120 545.890 C 755.737 535.960, 779.330 511.742, 794.566 495.136 C 799.487 489.772, 799.487 489.772, 782.966 473.636 C 768.257 459.270, 737.656 430.930, 732.593 426.985 C 730.741 425.542, 730.705 425.742, 731.338 434 M 265.352 447.767 C 254.433 458.161, 240.664 471.749, 234.753 477.963 C 224.007 489.261, 224.007 489.261, 236.682 502.381 C 243.653 509.596, 256.814 522.658, 265.929 531.406 C 282.500 547.311, 282.500 547.311, 283.173 501.906 C 283.544 476.933, 284.299 450.430, 284.852 443.012 C 285.405 435.593, 285.710 429.376, 285.530 429.197 C 285.350 429.017, 276.270 437.374, 265.352 447.767 M 812.462 540.789 C 790.670 562.186, 768.075 582.690, 746.285 600.842 C 730.912 613.649, 730.044 614.561, 729.572 618.425 C 729.298 620.666, 728.356 630.150, 727.479 639.500 C 723.249 684.581, 715.849 729.724, 705.923 771 C 703.740 780.075, 701.732 788.215, 701.461 789.089 C 701.062 790.374, 703.502 791.369, 714.234 794.298 C 762.877 807.573, 789.636 812.165, 818.500 812.190 C 857.076 812.223, 882.895 802.265, 907.148 777.999 C 915.724 769.419, 917.352 767.189, 921.814 757.923 C 929.059 742.875, 930.427 736.576, 930.374 718.500 C 930.325 702.014, 928.528 691.134, 923.094 674.422 C 909.261 631.887, 879.653 579.267, 849.144 543 C 840.795 533.076, 831.656 522.995, 831.046 523.039 C 830.746 523.061, 822.383 531.048, 812.462 540.789 M 175.565 543.163 C 149.851 573.122, 130.457 602.155, 116.009 632.320 C 99.794 666.173, 91.734 697.820, 91.768 727.500 C 91.781 738.496, 92.233 743.182, 93.875 749.342 C 102.446 781.495, 127.390 799.694, 172.500 806.707 C 186.004 808.807, 223.759 809.043, 241 807.137 C 264.116 804.581, 310.942 796.392, 312.743 794.590 C 312.985 794.348, 311.599 787.254, 309.662 778.825 C 299.703 735.474, 291.404 682.981, 288.030 642 C 286.290 620.876, 287.635 623.610, 273.228 611.898 C 248.615 591.890, 222.825 568.685, 196.898 543.221 C 185.296 531.826, 185.296 531.826, 175.565 543.163 M 395.120 570.454 C 395.370 570.703, 422.444 586.424, 455.284 605.388 C 514.995 639.869, 514.995 639.869, 574.743 605.355 C 607.605 586.373, 634.681 570.653, 634.912 570.421 C 635.144 570.189, 581.183 570, 515 570 C 448.817 570, 394.871 570.204, 395.120 570.454 M 699 638.240 C 661.036 667.105, 611.593 699.896, 568.136 725.031 C 551.469 734.671, 550.123 732.146, 578.897 745.205 C 611.903 760.185, 682.582 786.744, 684.460 784.872 C 686.065 783.271, 694.674 742.041, 699.466 713 C 703.703 687.327, 710.675 631.192, 709.721 630.433 C 709.600 630.336, 704.775 633.850, 699 638.240 M 352 673.730 C 352 682.945, 370.221 774.182, 372.602 776.889 C 373.788 778.236, 460 741.407, 460 739.553 C 460 739.271, 458.087 738.066, 455.750 736.874 C 444.790 731.286, 403.889 706.056, 380 690.147 C 365.425 680.441, 353.163 672.350, 352.750 672.167 C 352.337 671.983, 352 672.687, 352 673.730 M 487.500 768.199 C 463.242 780.522, 424.949 797.003, 396.344 807.434 C 382.187 812.596, 382.187 812.596, 387.399 829.048 C 408.209 894.741, 432.379 939.643, 463.687 970.775 C 484.250 991.222, 503.402 998.843, 531.419 997.729 C 547.598 997.086, 557.012 994.757, 570.500 988.063 C 582.963 981.877, 590.686 975.545, 602.363 961.937 C 627.758 932.342, 646.158 898.717, 665.897 845.829 C 668.704 838.310, 671 831.532, 671 830.768 C 671 829.928, 668.923 828.849, 665.750 828.040 C 656.762 825.750, 626.324 815.525, 607.500 808.472 C 583.118 799.336, 553.079 786.445, 525.064 773.095 C 512.259 766.993, 501.269 762.023, 500.641 762.052 C 500.014 762.080, 494.100 764.847, 487.500 768.199" stroke="none" fill="#456db0" fill-rule="evenodd"/></svg>